<?xml version="1.0" encoding="UTF-8"?>
<svg id="Layer_1" data-name="Layer 1" xmlns="http://www.w3.org/2000/svg" width="1498" height="2379" version="1.1" viewBox="0 0 1498 2379">
  <defs>
    <style>
      .cls-1 {
        fill: #dea8ff;
      }

      .cls-1, .cls-2, .cls-3, .cls-4, .cls-5, .cls-6, .cls-7 {
        stroke-width: 0px;
      }

      .cls-2 {
        fill: #c260ff;
      }

      .cls-3 {
        fill: #edd3fd;
      }

      .cls-4 {
        fill: #64438e;
      }

      .cls-5 {
        fill: #000;
        isolation: isolate;
        opacity: .2;
      }

      .cls-6 {
        fill: #fff;
      }

      .cls-7 {
        fill: #f696c6;
      }
    </style>
  </defs>
  <path class="cls-5" d="M176.2,2290.7v44.1h44.1v44.1h1057.3v-44.1h44.1v-44.1H176.2Z"/>
  <path class="cls-4" d="M1409.7,352.4v-88.1h-88.1v-88.1h-176.2v-88.1h-176.2V0h-440.5v88.1h-176.2v88.1h-176.2v88.1h-88.1v88.1H0v1806.2h176.2v-88.1h220.3v88.1h220.3v-88.1h264.3v88.1h220.3v-88.1h220.3v88.1h176.2V352.4h-88.1Z"/>
  <path class="cls-3" d="M1321.6,352.4v-88.1h-176.2v-88.1h-176.2v-88.1h-440.5v88.1h-176.2v88.1h-176.2v88.1h-88.1v1718.1h88.1v-88.1h220.3v88.1h220.3v-88.1h264.3v88.1h220.3v-88.1h220.3v88.1h88.1V352.4h-88.1Z"/>
  <path class="cls-6" d="M132.2,1894.3h88.1v-44.1h88.1v44.1h88.1v88.1h220.3v-88.1h88.1v-44.1h88.1v44.1h88.1v88.1h220.3v-88.1h88.1v-44.1h88.1v44.1h44V352.4h-176.2v-88.1h-176.2v-88.1h-220.3v-44.1h-220.3v88.1h-176.2v88.1h-176.2v88.1h-44.1v1497.8Z"/>
  <path class="cls-4" d="M352.4,969.2v88.1h176.2v-88.1h88.1v-176.2h-88.1v-88.1h-176.2v88.1h-88.1v176.2h88.1ZM881.1,793v176.2h88.1v88.1h176.2v-88.1h88.1v-176.2h-88.1v-88.1h-176.2v88.1h-88.1Z"/>
  <path class="cls-7" d="M264.3,1145.4v88.1h88.1v-88.1h-88.1ZM1145.4,1145.4v88.1h88.1v-88.1h-88.1Z"/>
  <path class="cls-4" d="M616.7,1145.4h-88.1v88.1h88.1v-88.1Z"/>
  <path class="cls-4" d="M616.8,1233.5v88.1h264.3v-88.1h-264.3Z"/>
  <path class="cls-4" d="M881.1,1145.4v88.1h88.1v-88.1h-88.1Z"/>
  <path class="cls-4" d="M881.1,396.5v-44.1h-44.1v-44.1h-44.1v-44.1h-88.1v44.1h-44.1v44.1h-44.1v44.1h-44.1v176.2h44.1v44.1h44.1v44.1h44.1v44.1h88.1v-44.1h44.1v-44.1h44.1v-44.1h44.1v-176.2h-44.1Z"/>
  <path class="cls-1" d="M616.7,484.6v88.1h44.1v44.1h44.1v44.1h44.1v-176.2h-132.2Z"/>
  <path class="cls-1" d="M837,396.5v-44.1h-44.1v-44.1h-44.1v176.2h132.2v-88.1h-44.1Z"/>
  <path class="cls-2" d="M748.9,484.6v176.2h44.1v-44.1h44.1v-44.1h44.1v-88.1h-132.2Z"/>
  <path class="cls-3" d="M704.8,308.4v44.1h-44.1v44.1h-44.1v88.1h132.2v-176.2h-44.1Z"/>
  <path class="cls-3" d="M1277.5,1585.9h44v88.1h-44v-88.1ZM1013.2,1674v88.1h176.2v-88.1h-176.2Z"/>
  <path class="cls-3" d="M925.1,1541.9v132.2h88.1v-132.2h-88.1ZM1189.4,1630v88.1h88.1v-88.1h-88.1Z"/>
  <path class="cls-3" d="M969.2,1541.9h44v176.2h-44v-176.2Z"/>
  <path class="cls-4" d="M1233.5,1321.6v44.1h-44.1v44h-88.1v44.1h-88.1v44.1h-44.1v176.2h44.1v44.1h176.2v-44.1h88.1v-44.1h44v-44.1h-44v-264.3h-44.1Z"/>
  <path class="cls-6" d="M1013.2,1497.8v176.2h176.2v-44.1h88.1v-44.1h44v-264.3h-44v44.1h-44.1v44h-44v44.1h-88.1v44.1h-88.1Z"/>
  <path class="cls-3" d="M220.3,1674h-44.1v-88.1h44.1v88.1ZM308.4,1674v88.1h176.2v-88.1h-176.2Z"/>
  <path class="cls-3" d="M484.6,1541.9v132.2h88.1v-132.2h-88.1ZM220.3,1630v88.1h88.1v-88.1h-88.1Z"/>
  <path class="cls-3" d="M528.6,1718.1h-44.1v-176.2h44.1v176.2Z"/>
  <path class="cls-4" d="M264.3,1321.6v44.1h44.1v44h88.1v44.1h88.1v44.1h44.1v176.2h-44.1v44.1h-176.2v-44.1h-88.1v-44.1h-44.1v-44.1h44.1v-264.3h44.1Z"/>
  <path class="cls-6" d="M396.5,1497.8v-44.1h-88.1v-44.1h-44.1v-44h-44.1v-44.1h-44.1v264.3h44.1v44.1h88.1v44.1h176.2v-176.2h-88.1Z"/>
</svg>