<?xml version="1.0" encoding="UTF-8"?>
<svg id="Layer_1" data-name="Layer 1" xmlns="http://www.w3.org/2000/svg" width="34" height="54" version="1.1" viewBox="0 0 34 54">
  <defs>
    <style>
      .cls-1 {
        fill: #aedcce;
      }

      .cls-1, .cls-2, .cls-3, .cls-4, .cls-5 {
        stroke-width: 0px;
      }

      .cls-2 {
        fill: #000;
        isolation: isolate;
        opacity: .2;
      }

      .cls-3 {
        fill: #26a17b;
      }

      .cls-4 {
        fill: #fff;
      }

      .cls-5 {
        fill: #f696c6;
      }
    </style>
  </defs>
  <path class="cls-2" d="M4,52v1h1v1h24v-1h1v-1H4Z"/>
  <path class="cls-3" d="M32,8v-2h-2v-2h-4v-2h-4V0h-10v2h-4v2h-4v2h-2v2H0v41h4v-2h5v2h5v-2h6v2h5v-2h5v2h4V8h-2Z"/>
  <path class="cls-1" d="M30,8v-2h-4v-2h-4v-2h-10v2h-4v2h-4v2h-2v39h2v-2h5v2h5v-2h6v2h5v-2h5v2h2V8h-2Z"/>
  <path class="cls-4" d="M3,43h2v-1h2v1h2v2h5v-2h2v-1h2v1h2v2h5v-2h2v-1h2v1h1V8h-4v-2h-4v-2h-5v-1h-5v2h-4v2h-4v2h-1v34Z"/>
  <path class="cls-5" d="M6,26v2h2v-2h-2ZM26,26v2h2v-2h-2Z"/>
  <path class="cls-3" d="M14,26h-2v2h2v-2Z"/>
  <path class="cls-3" d="M14,28v2h6v-2h-6Z"/>
  <path class="cls-3" d="M20,26v2h2v-2h-2Z"/>
  <path class="cls-1" d="M29,36h1v2h-1v-2ZM23,38v2h4v-2h-4Z"/>
  <path class="cls-1" d="M21,35v3h2v-3h-2ZM27,37v2h2v-2h-2Z"/>
  <path class="cls-1" d="M22,35h1v4h-1v-4Z"/>
  <path class="cls-3" d="M28,30v1h-1v1h-2v1h-2v1h-1v4h1v1h4v-1h2v-1h1v-1h-1v-6h-1Z"/>
  <path class="cls-4" d="M23,34v4h4v-1h2v-1h1v-6h-1v1h-1v1h-1v1h-2v1h-2Z"/>
  <path class="cls-1" d="M5,38h-1v-2h1v2ZM7,38v2h4v-2h-4Z"/>
  <path class="cls-1" d="M11,35v3h2v-3h-2ZM5,37v2h2v-2h-2Z"/>
  <path class="cls-1" d="M12,39h-1v-4h1v4Z"/>
  <path class="cls-3" d="M6,30v1h1v1h2v1h2v1h1v4h-1v1h-4v-1h-2v-1h-1v-1h1v-6h1Z"/>
  <path class="cls-4" d="M9,34v-1h-2v-1h-1v-1h-1v-1h-1v6h1v1h2v1h4v-4h-2Z"/>
  <path class="cls-3" d="M18,13h-2v3h2v-3Z"/>
  <path class="cls-3" d="M16,12h2v-1h3v-1h-3v-1h2v-2h-6v2h2v1h-3v1h3v1Z"/>
  <path class="cls-3" d="M13,11h-1v1h1v-1Z"/>
  <path class="cls-3" d="M22,11h-1v1h1v-1Z"/>
  <path class="cls-3" d="M16,12h-3v1h3v-1Z"/>
  <path class="cls-3" d="M21,12h-3v1h3v-1Z"/>
  <path class="cls-3" d="M23,21v3h2v-3h-2ZM23,19v1h2v-1h3v-1h-3v-1h2v-2h-6v2h2v1h-3v1h3Z"/>
  <path class="cls-3" d="M19,19h1v1h-1v-1Z"/>
  <path class="cls-3" d="M20,20v1h3v-1h-3ZM28,19h1v1h-1v-1Z"/>
  <path class="cls-3" d="M25,20v1h3v-1h-3ZM9,21v3h2v-3h-2ZM9,19v1h2v-1h3v-1h-3v-1h2v-2h-6v2h2v1h-3v1h3Z"/>
  <path class="cls-3" d="M5,19h1v1h-1v-1Z"/>
  <path class="cls-3" d="M6,20v1h3v-1h-3ZM14,19h1v1h-1v-1Z"/>
  <path class="cls-3" d="M11,20v1h3v-1h-3Z"/>
</svg>