<?xml version="1.0" encoding="UTF-8"?>
<svg id="Layer_1" data-name="Layer 1" xmlns="http://www.w3.org/2000/svg" width="34" height="57" version="1.1" viewBox="0 0 34 57">
  <defs>
    <style>
      .cls-1 {
        fill: #ff3085;
      }

      .cls-1, .cls-2, .cls-3, .cls-4, .cls-5, .cls-6, .cls-7, .cls-8 {
        stroke-width: 0px;
      }

      .cls-2 {
        fill: #ffdeec;
      }

      .cls-3 {
        fill: #ffc2db;
      }

      .cls-4 {
        fill: #ff88b8;
      }

      .cls-5 {
        fill: #ffcae3;
      }

      .cls-6 {
        fill: #000;
        isolation: isolate;
        opacity: .2;
      }

      .cls-7 {
        fill: #fff;
      }

      .cls-8 {
        fill: #f696c6;
      }
    </style>
  </defs>
  <path class="cls-6" d="M4,55v1h1v1h24v-1h1v-1H4Z"/>
  <path class="cls-1" d="M32,11v-2h-2v-2h-4v-2h-4v-2h-10v2h-4v2h-4v2h-2v2H0v41h4v-2h5v2h5v-2h6v2h5v-2h5v2h4V11h-2Z"/>
  <path class="cls-5" d="M30,11v-2h-4v-2h-4v-2h-10v2h-4v2h-4v2h-2v39h2v-2h5v2h5v-2h6v2h5v-2h5v2h2V11h-2Z"/>
  <path class="cls-7" d="M3,46h2v-1h2v1h2v2h5v-2h2v-1h2v1h2v2h5v-2h2v-1h2v1h1V11h-4v-2h-4v-2h-5v-1h-5v2h-4v2h-4v2h-1v34Z"/>
  <path class="cls-8" d="M6,29v2h2v-2h-2ZM26,29v2h2v-2h-2Z"/>
  <path class="cls-1" d="M14,29h-2v2h2v-2Z"/>
  <path class="cls-1" d="M14,31v2h6v-2h-6Z"/>
  <path class="cls-1" d="M20,29v2h2v-2h-2Z"/>
  <path class="cls-5" d="M29,39h1v2h-1v-2ZM23,41v2h4v-2h-4Z"/>
  <path class="cls-5" d="M21,38v3h2v-3h-2ZM27,40v2h2v-2h-2Z"/>
  <path class="cls-5" d="M22,38h1v4h-1v-4Z"/>
  <path class="cls-1" d="M28,33v1h-1v1h-2v1h-2v1h-1v4h1v1h4v-1h2v-1h1v-1h-1v-6h-1Z"/>
  <path class="cls-7" d="M23,37v4h4v-1h2v-1h1v-6h-1v1h-1v1h-1v1h-2v1h-2Z"/>
  <path class="cls-5" d="M5,41h-1v-2h1v2ZM7,41v2h4v-2h-4Z"/>
  <path class="cls-5" d="M11,38v3h2v-3h-2ZM5,40v2h2v-2h-2Z"/>
  <path class="cls-5" d="M12,42h-1v-4h1v4Z"/>
  <path class="cls-1" d="M6,33v1h1v1h2v1h2v1h1v4h-1v1h-4v-1h-2v-1h-1v-1h1v-6h1Z"/>
  <path class="cls-7" d="M9,37v-1h-2v-1h-1v-1h-1v-1h-1v6h1v1h2v1h4v-4h-2Z"/>
  <path class="cls-3" d="M15,6v-1h-1v1h-1v2h1v1h2v-3h-1Z"/>
  <path class="cls-2" d="M13,4v-1h-1v2h2v-1h-1Z"/>
  <path class="cls-7" d="M11,2h1v1h-1v-1Z"/>
  <path class="cls-4" d="M18,10v-2h-1v1h-1v1h-2v1h1v1h4v-2h-1Z"/>
  <path class="cls-1" d="M12,2v-1h-1V0h-1v3h1v-1h1Z"/>
  <path class="cls-1" d="M12,2h1v1h-1v-1Z"/>
  <path class="cls-1" d="M13,3h1v1h-1v-1Z"/>
  <path class="cls-1" d="M14,4h1v1h-1v-1Z"/>
  <path class="cls-1" d="M15,5h1v1h-1v-1ZM13,6h1v-1h-2v3h1v-2Z"/>
  <path class="cls-1" d="M16,10v-1h-2v-1h-1v3h1v-1h2Z"/>
  <path class="cls-1" d="M16,9h1v-1h1v-1h-1v-1h-1v3Z"/>
  <path class="cls-1" d="M19,9v-1h-1v2h1v2h1v-3h-1Z"/>
  <path class="cls-1" d="M15,12v-1h-1v2h5v-1h-4ZM11,3h1v2h-1v-2Z"/>
  <path class="cls-1" d="M7,15v1h1v1h1v1h1v1h1v1h1v1h1v3h-1v1h-3v-2h-1v-3h-1v-2h-1v-3h1Z"/>
  <path class="cls-7" d="M7,17h1v1h-1v-1Z"/>
  <path class="cls-2" d="M9,19v-1h-1v2h2v-1h-1Z"/>
  <path class="cls-1" d="M20,15v1h1v1h1v1h1v1h1v1h1v1h1v3h-1v1h-3v-2h-1v-3h-1v-2h-1v-3h1Z"/>
  <path class="cls-7" d="M20,17h1v1h-1v-1Z"/>
  <path class="cls-2" d="M22,19v-1h-1v2h2v-1h-1Z"/>
</svg>