<?xml version="1.0" encoding="UTF-8"?>
<svg id="Layer_1" data-name="Layer 1" xmlns="http://www.w3.org/2000/svg" width="34" height="54" version="1.1" viewBox="0 0 34 54">
  <defs>
    <style>
      .cls-1 {
        fill: #0074f9;
      }

      .cls-1, .cls-2, .cls-3, .cls-4, .cls-5 {
        stroke-width: 0px;
      }

      .cls-2 {
        fill: #c8e1fd;
      }

      .cls-3 {
        fill: #000;
        isolation: isolate;
        opacity: .2;
      }

      .cls-4 {
        fill: #fff;
      }

      .cls-5 {
        fill: #f696c6;
      }
    </style>
  </defs>
  <path class="cls-3" d="M4,52v1h1v1h24v-1h1v-1H4Z"/>
  <path class="cls-1" d="M32,8v-2h-2v-2h-4v-2h-4V0h-10v2h-4v2h-4v2h-2v2H0v41h4v-2h5v2h5v-2h6v2h5v-2h5v2h4V8h-2Z"/>
  <path class="cls-2" d="M30,8v-2h-4v-2h-4v-2h-10v2h-4v2h-4v2h-2v39h2v-2h5v2h5v-2h6v2h5v-2h5v2h2V8h-2Z"/>
  <path class="cls-4" d="M3,43h2v-1h2v1h2v2h5v-2h2v-1h2v1h2v2h5v-2h2v-1h2v1h1V8h-4v-2h-4v-2h-5v-1h-5v2h-4v2h-4v2h-1v34Z"/>
  <path class="cls-5" d="M6,26v2h2v-2h-2ZM26,26v2h2v-2h-2Z"/>
  <path class="cls-1" d="M14,26h-2v2h2v-2Z"/>
  <path class="cls-1" d="M14,28v2h6v-2h-6Z"/>
  <path class="cls-1" d="M20,26v2h2v-2h-2Z"/>
  <path class="cls-2" d="M29,36h1v2h-1v-2ZM23,38v2h4v-2h-4Z"/>
  <path class="cls-2" d="M21,35v3h2v-3h-2ZM27,37v2h2v-2h-2Z"/>
  <path class="cls-2" d="M22,35h1v4h-1v-4Z"/>
  <path class="cls-1" d="M28,30v1h-1v1h-2v1h-2v1h-1v4h1v1h4v-1h2v-1h1v-1h-1v-6h-1Z"/>
  <path class="cls-4" d="M23,34v4h4v-1h2v-1h1v-6h-1v1h-1v1h-1v1h-2v1h-2Z"/>
  <path class="cls-2" d="M5,38h-1v-2h1v2ZM7,38v2h4v-2h-4Z"/>
  <path class="cls-2" d="M11,35v3h2v-3h-2ZM5,37v2h2v-2h-2Z"/>
  <path class="cls-2" d="M12,39h-1v-4h1v4Z"/>
  <path class="cls-1" d="M6,30v1h1v1h2v1h2v1h1v4h-1v1h-4v-1h-2v-1h-1v-1h1v-6h1Z"/>
  <path class="cls-4" d="M9,34v-1h-2v-1h-1v-1h-1v-1h-1v6h1v1h2v1h4v-4h-2Z"/>
  <path class="cls-1" d="M20,11h-1v4h1v-4Z"/>
  <path class="cls-1" d="M16,10h-1v1h1v-1Z"/>
  <path class="cls-1" d="M19,15h-4v1h4v-1Z"/>
  <path class="cls-1" d="M19,10h-1v1h1v-1Z"/>
  <path class="cls-1" d="M15,14h-1v1h1v-1Z"/>
  <path class="cls-1" d="M16,12h-2v1h1v1h1v-2Z"/>
  <path class="cls-1" d="M19,5h-4v1h4v-1Z"/>
  <path class="cls-1" d="M15,6h-1v4h1v-4Z"/>
  <path class="cls-1" d="M20,6h-1v1h1v-1Z"/>
  <path class="cls-1" d="M17.5,7h-1v7h1v-7Z"/>
  <path class="cls-1" d="M18,7v2h2v-1h-1v-1h-1Z"/>
  <path class="cls-1" d="M12,20h-1v1h1v-1Z"/>
  <path class="cls-1" d="M13,21h-1v3h1v-3Z"/>
  <path class="cls-1" d="M12,24h-4v1h4v-1Z"/>
  <path class="cls-1" d="M8,23h-1v1h1v-1Z"/>
  <path class="cls-1" d="M13,16h-1v1h1v-1Z"/>
  <path class="cls-1" d="M12,15h-4v1h4v-1Z"/>
  <path class="cls-1" d="M9,19h-1v1h1v-1Z"/>
  <path class="cls-1" d="M9,21h-2v1h1v1h1v-2Z"/>
  <path class="cls-1" d="M10.5,17h-1v6h1v-6Z"/>
  <path class="cls-1" d="M26,20h-1v1h1v-1Z"/>
  <path class="cls-1" d="M8,16h-1v3h1v-3Z"/>
  <path class="cls-1" d="M11,18v1h2v-1h-1v-1h-1v1Z"/>
  <path class="cls-1" d="M27,21h-1v3h1v-3Z"/>
  <path class="cls-1" d="M26,24h-4v1h4v-1Z"/>
  <path class="cls-1" d="M22,23h-1v1h1v-1Z"/>
  <path class="cls-1" d="M23,22v-1h-2v1h1v1h1v-1Z"/>
  <path class="cls-1" d="M23,19h-1v1h1v-1Z"/>
  <path class="cls-1" d="M22,16h-1v3h1v-3Z"/>
  <path class="cls-1" d="M26,15h-4v1h4v-1Z"/>
  <path class="cls-1" d="M27,16h-1v1h1v-1Z"/>
  <path class="cls-1" d="M24.5,17h-1v6h1v-6Z"/>
  <path class="cls-1" d="M25,17v2h2v-1h-1v-1h-1Z"/>
</svg>