<?xml version="1.0" encoding="UTF-8"?>
<svg id="Layer_1" data-name="Layer 1" xmlns="http://www.w3.org/2000/svg" width="34" height="54" version="1.1" viewBox="0 0 34 54">
  <defs>
    <style>
      .cls-1 {
        fill: #e6cce1;
      }

      .cls-1, .cls-2, .cls-3, .cls-4, .cls-5 {
        stroke-width: 0px;
      }

      .cls-2 {
        fill: #000;
        isolation: isolate;
        opacity: .2;
      }

      .cls-3 {
        fill: #a73796;
      }

      .cls-4 {
        fill: #fff;
      }

      .cls-5 {
        fill: #f696c6;
      }
    </style>
  </defs>
  <path class="cls-2" d="M4,52v1h1v1h24v-1h1v-1H4Z"/>
  <path class="cls-3" d="M32,8v-2h-2v-2h-4v-2h-4V0h-10v2h-4v2h-4v2h-2v2H0v41h4v-2h5v2h5v-2h6v2h5v-2h5v2h4V8h-2Z"/>
  <path class="cls-1" d="M30,8v-2h-4v-2h-4v-2h-10v2h-4v2h-4v2h-2v39h2v-2h5v2h5v-2h6v2h5v-2h5v2h2V8h-2Z"/>
  <path class="cls-4" d="M3,43h2v-1h2v1h2v2h5v-2h2v-1h2v1h2v2h5v-2h2v-1h2v1h1V8h-4v-2h-4v-2h-5v-1h-5v2h-4v2h-4v2h-1v34Z"/>
  <path class="cls-5" d="M6,26v2h2v-2h-2ZM26,26v2h2v-2h-2Z"/>
  <path class="cls-3" d="M14,26h-2v2h2v-2Z"/>
  <path class="cls-3" d="M14,28v2h6v-2h-6Z"/>
  <path class="cls-3" d="M20,26v2h2v-2h-2Z"/>
  <path class="cls-1" d="M29,36h1v2h-1v-2ZM23,38v2h4v-2h-4Z"/>
  <path class="cls-1" d="M21,35v3h2v-3h-2ZM27,37v2h2v-2h-2Z"/>
  <path class="cls-1" d="M22,35h1v4h-1v-4Z"/>
  <path class="cls-3" d="M28,30v1h-1v1h-2v1h-2v1h-1v4h1v1h4v-1h2v-1h1v-1h-1v-6h-1Z"/>
  <path class="cls-4" d="M23,34v4h4v-1h2v-1h1v-6h-1v1h-1v1h-1v1h-2v1h-2Z"/>
  <path class="cls-1" d="M5,38h-1v-2h1v2ZM7,38v2h4v-2h-4Z"/>
  <path class="cls-1" d="M11,35v3h2v-3h-2ZM5,37v2h2v-2h-2Z"/>
  <path class="cls-1" d="M12,39h-1v-4h1v4Z"/>
  <path class="cls-3" d="M6,30v1h1v1h2v1h2v1h1v4h-1v1h-4v-1h-2v-1h-1v-1h1v-6h1Z"/>
  <path class="cls-4" d="M9,34v-1h-2v-1h-1v-1h-1v-1h-1v6h1v1h2v1h4v-4h-2Z"/>
  <path class="cls-3" d="M15.5,9h1v-2h-1v2Z"/>
  <path class="cls-3" d="M16.5,6h1v1h-1v-1Z"/>
  <path class="cls-3" d="M18.5,7h-1v2h1v-2ZM14.5,10h-2v1h1v2h1v-2h2v-1h-1v-1h-1v1Z"/>
  <path class="cls-3" d="M19.5,9h-1v2h1v-2Z"/>
  <path class="cls-3" d="M20.5,11h-1v2h1v-2ZM12.5,15h1v-2h-1v2Z"/>
  <path class="cls-3" d="M20.5,13v2h1v-2h-1Z"/>
  <path class="cls-3" d="M9,17v1h1v-2h-1v1Z"/>
  <path class="cls-3" d="M11,15h-1v1h1v-1Z"/>
  <path class="cls-3" d="M12,16h-1v2h1v-2Z"/>
  <path class="cls-3" d="M8,19h-2v1h1v2h1v-2h2v-1h-1v-1h-1v1Z"/>
  <path class="cls-3" d="M13,18h-1v2h1v-2Z"/>
  <path class="cls-3" d="M6,23v1h1v-2h-1v1Z"/>
  <path class="cls-3" d="M14,20h-1v2h1v-2Z"/>
  <path class="cls-3" d="M22,17v1h1v-2h-1v1Z"/>
  <path class="cls-3" d="M14,23v1h1v-2h-1v1Z"/>
  <path class="cls-3" d="M24,15h-1v1h1v-1Z"/>
  <path class="cls-3" d="M25,16h-1v2h1v-2Z"/>
  <path class="cls-3" d="M21,19h-2v1h1v2h1v-2h2v-1h-1v-1h-1v1Z"/>
  <path class="cls-3" d="M26,18h-1v2h1v-2Z"/>
  <path class="cls-3" d="M19,23v1h1v-2h-1v1Z"/>
  <path class="cls-3" d="M27,20h-1v2h1v-2Z"/>
  <path class="cls-3" d="M28,22h-1v2h1v-2Z"/>
</svg>